<!DOCTYPE svg PUBLIC "-//W3C//DTD SVG 1.1//EN" "http://www.w3.org/Graphics/SVG/1.1/DTD/svg11.dtd">
<!-- Uploaded to: SVG Repo, www.svgrepo.com, Transformed by: SVG Repo Mixer Tools -->
<svg version="1.1" id="Icons" xmlns="http://www.w3.org/2000/svg" xmlns:xlink="http://www.w3.org/1999/xlink" viewBox="0 0 32 32" xml:space="preserve" width="800px" height="800px" fill="#000000">
<g id="SVGRepo_bgCarrier" stroke-width="0"/>
<g id="SVGRepo_tracerCarrier" stroke-linecap="round" stroke-linejoin="round"/>
<g id="SVGRepo_iconCarrier"> <style type="text/css"> .st0{fill:none;stroke:#000000;stroke-width:2;stroke-linecap:round;stroke-linejoin:round;stroke-miterlimit:10;} .st1{fill:none;stroke:#000000;stroke-width:2;stroke-linejoin:round;stroke-miterlimit:10;} .st2{fill:none;stroke:#000000;stroke-width:2;stroke-linecap:round;stroke-miterlimit:10;} </style> <path class="st0" d="M12,13l-2-9l0,0c3.8-1.9,8.2-1.9,12,0l0,0l-2,9"/> <path class="st0" d="M21.7,5.6C24.9,7.5,27,11,27,15v2l2,2H16H3l2-2v-2c0-4,2.1-7.5,5.3-9.4"/> <path class="st0" d="M7.9,19.1c-0.1,0.6-0.2,1.3-0.2,1.9c0,0.7,0.1,1.3,0.2,1.9c1-0.1,2,0.3,2.5,1.3c0.5,0.9,0.4,2-0.2,2.8 c0.9,0.9,2.1,1.6,3.4,2c0.4-0.9,1.3-1.6,2.4-1.6s2,0.7,2.4,1.6c1.3-0.4,2.4-1.1,3.4-2c-0.6-0.8-0.7-1.9-0.2-2.8 c0.5-0.9,1.6-1.4,2.5-1.3c0.1-0.6,0.2-1.3,0.2-1.9c0-0.7-0.1-1.3-0.2-1.9"/> <path class="st0" d="M13.8,19c-0.5,0.5-0.8,1.2-0.8,2c0,1.7,1.3,3,3,3s3-1.3,3-3c0-0.8-0.3-1.5-0.8-2"/> </g>
</svg>