<?xml version="1.0" ?>
<!-- Uploaded to: SVG Repo, www.svgrepo.com, Generator: SVG Repo Mixer Tools -->
<svg width="800px" height="800px" viewBox="0 0 64 64" id="svg5" version="1.1" xml:space="preserve" xmlns="http://www.w3.org/2000/svg" xmlns:svg="http://www.w3.org/2000/svg">
<defs id="defs2"/>
<g id="layer1" transform="translate(-96,-576)">
<path d="m 106,585 h 49 v 6 h -49 z" id="path61132" style="fill:#3e4f59;fill-opacity:1;fill-rule:evenodd;stroke-width:2;stroke-linecap:round;stroke-linejoin:round;stroke-miterlimit:4.1"/>
<path d="m 106,591 h 49 v 40 h -49 z" id="path61134" style="fill:#acbec2;fill-opacity:1;fill-rule:evenodd;stroke-width:2.00001;stroke-linecap:round;stroke-linejoin:round;stroke-miterlimit:4.1"/>
<path d="m 106,591 v 40 h 29.76953 a 28.484051,41.392605 35.599482 0 0 18.625,-40 z" id="path61136" style="fill:#e8edee;fill-opacity:1;fill-rule:evenodd;stroke:none;stroke-width:2.00002;stroke-linecap:round;stroke-linejoin:round;stroke-miterlimit:4.1"/>
<path d="m 108,584 c -1.64501,0 -3,1.355 -3,3 v 40 c 0,0.55229 0.44772,1 1,1 0.55229,0 1,-0.44771 1,-1 v -40 c 0,-0.56413 0.43587,-1 1,-1 h 45 c 0.56413,0 1,0.43587 1,1 v 3 h -42 c -0.55228,0 -1,0.44772 -1,1 0,0.55229 0.44772,1 1,1 h 42 v 37 c 0,0.56413 -0.43587,1 -1,1 h -49 c -0.55228,0 -1,0.44772 -1,1 0,0.55229 0.44772,1 1,1 h 49 c 1.64501,0 3,-1.35499 3,-3 0,-14 0,-28 0,-42 0,-1.645 -1.35499,-3 -3,-3 z" id="path61138" style="color:#000000;fill:#000000;fill-rule:evenodd;stroke-linecap:round;stroke-linejoin:round;stroke-miterlimit:4.1"/>
<path d="m 151,587 c -0.55228,0 -1,0.44772 -1,1 0,0.55229 0.44772,1 1,1 0.55229,0 1,-0.44771 1,-1 0,-0.55228 -0.44771,-1 -1,-1 z" id="path61140" style="color:#000000;fill:#ed7161;fill-opacity:1;fill-rule:evenodd;stroke-linecap:round;stroke-linejoin:round;stroke-miterlimit:4.1;-inkscape-stroke:none"/>
<path d="m 147,587 c -0.55228,0 -1,0.44772 -1,1 0,0.55229 0.44772,1 1,1 0.55229,0 1,-0.44771 1,-1 0,-0.55228 -0.44771,-1 -1,-1 z" id="path61142" style="color:#000000;fill:#ecba16;fill-opacity:1;fill-rule:evenodd;stroke-linecap:round;stroke-linejoin:round;stroke-miterlimit:4.1;-inkscape-stroke:none"/>
<path d="m 143,587 c -0.55228,0 -1,0.44772 -1,1 0,0.55229 0.44772,1 1,1 0.55229,0 1,-0.44771 1,-1 0,-0.55228 -0.44771,-1 -1,-1 z" id="path61144" style="color:#000000;fill:#42b05c;fill-opacity:1;fill-rule:evenodd;stroke-linecap:round;stroke-linejoin:round;stroke-miterlimit:4.1;-inkscape-stroke:none"/>
<path d="m 101,630 a 1,1 0 0 0 -1,1 1,1 0 0 0 1,1 1,1 0 0 0 1,-1 1,1 0 0 0 -1,-1 z" id="path61146" style="color:#000000;fill:#000000;fill-rule:evenodd;stroke-linecap:round;stroke-linejoin:round;stroke-miterlimit:4.1;-inkscape-stroke:none"/>
<path d="m 109,590 c -0.55228,0 -1,0.44772 -1,1 0,0.55229 0.44772,1 1,1 0.55229,0 1,-0.44771 1,-1 0,-0.55228 -0.44771,-1 -1,-1 z" id="path61148" style="color:#000000;fill:#000000;fill-rule:evenodd;stroke-linecap:round;stroke-linejoin:round;stroke-miterlimit:4.1;-inkscape-stroke:none"/>
<path d="m 137.95083,620.92569 2.82842,-2.82843 5.65685,5.65685 a 2,2 0 0 1 0,2.82844 2,2 0 0 1 -2.82843,0 z" id="rect1331" style="fill:#0075d3;fill-opacity:1;fill-rule:evenodd;stroke:none;stroke-width:2;stroke-linecap:round;stroke-linejoin:round;stroke-miterlimit:4.1"/>
<path d="m 140.7793,618.09766 -1.66992,1.66796 4.0625,4.0625 a 2,2 0 0 0 2.82812,0 2,2 0 0 0 0.23047,-0.27929 z" id="path48367" style="fill:#0588e2;fill-opacity:1;fill-rule:evenodd;stroke:none;stroke-width:2;stroke-linecap:round;stroke-linejoin:round;stroke-miterlimit:4.1"/>
<path d="m 126.99068,594.83794 a 13.006265,13.006265 0 0 1 13.00626,13.00629 13.006265,13.006265 0 0 1 -13.00626,13.00626 13.006265,13.006265 0 0 1 -13.00628,-13.00628 13.006265,13.006265 0 0 1 13.00628,-13.00627 z" id="path1327" style="fill:#0075d3;fill-opacity:1;fill-rule:evenodd;stroke:none;stroke-width:2.00001;stroke-linecap:round;stroke-linejoin:round;stroke-miterlimit:4.1"/>
<path d="m 123.99609,595.21875 a 13.006265,13.006265 0 0 0 -10.01171,12.625 13.006265,13.006265 0 0 0 13.00585,13.00586 13.006265,13.006265 0 0 0 6.43165,-1.73633 A 13.957917,16.66176 0 0 0 135,611.5 13.957917,16.66176 0 0 0 123.99609,595.21875 Z" id="path45431" style="fill:#0588e2;fill-opacity:1;fill-rule:evenodd;stroke:none;stroke-width:2;stroke-linecap:round;stroke-linejoin:round;stroke-miterlimit:4.1"/>
<path d="m 126.99023,593.83789 c -7.72359,0 -14.00585,6.28227 -14.00585,14.00586 0,3.24392 1.1072,6.24184 2.96289,8.61719 0.34021,0.43545 0.96911,0.51242 1.40429,0.17187 0.43545,-0.34021 0.51242,-0.9691 0.17188,-1.40429 -1.59179,-2.03755 -2.53906,-4.59482 -2.53906,-7.38477 0,-6.64271 5.36314,-12.00586 12.00585,-12.00586 1.71133,0 3.33423,0.35722 4.80469,1 0.5059,0.22095 1.09515,-0.01 1.31641,-0.51562 0.22226,-0.50643 -0.009,-1.0971 -0.51563,-1.31836 -1.71695,-0.75054 -3.61568,-1.16602 -5.60547,-1.16602 z m 8.80665,3.27539 c -0.34995,-0.0706 -0.71097,0.0508 -0.94727,0.31836 -0.36641,0.41361 -0.32793,1.04599 0.0859,1.41211 2.49142,2.20094 4.06055,5.40957 4.06054,9 -1e-5,6.6427 -5.36314,12.00585 -12.00586,12.00586 -2.43946,0 -4.69912,-0.72274 -6.59179,-1.96875 -0.46117,-0.30349 -1.08103,-0.17584 -1.38477,0.28516 -0.30348,0.46117 -0.17583,1.08102 0.28516,1.38476 2.20744,1.45324 4.855,2.29883 7.6914,2.29883 3.68239,-10e-6 7.03463,-1.43031 9.53711,-3.76172 l 1.42383,1.42383 -0.70703,0.70703 c -0.39037,0.39053 -0.39037,1.02353 0,1.41406 l 5.65625,5.65625 c 1.1632,1.1632 3.07899,1.1632 4.24219,0 1.16321,-1.1632 1.16321,-3.07899 0,-4.24218 -0.39051,-0.39042 -1.02355,-0.39042 -1.41406,0 -0.39042,0.39051 -0.39042,1.02355 0,1.41406 0.3989,0.3989 0.3989,1.01516 0,1.41406 -0.39891,0.3989 -1.01517,0.3989 -1.41407,0 l -4.94922,-4.94922 c 0.47136,-0.47135 0.94271,-0.9427 1.41407,-1.41406 l 2.52929,2.5293 c 0.39051,0.39043 1.02356,0.39043 1.41407,0 0.39043,-0.39051 0.39043,-1.02356 0,-1.41407 l -3.23633,-3.23633 c -0.39053,-0.39037 -1.02353,-0.39037 -1.41406,0 l -0.70704,0.70704 -1.47265,-1.47266 c 1.93998,-2.40378 3.10351,-5.4585 3.10351,-8.78125 1e-5,-4.17466 -1.83247,-7.93471 -4.73632,-10.5 -0.13142,-0.11608 -0.29106,-0.19556 -0.46289,-0.23047 z" id="path1353" style="color:#000000;fill:#000000;fill-rule:evenodd;stroke-linecap:round;stroke-linejoin:round;stroke-miterlimit:4.1;-inkscape-stroke:none"/>
<path d="m 123.98773,599 a 1.0001,1.0001 0 0 0 -1,1 v 3 a 1.0001,1.0001 0 0 0 1,1 h 6 a 1.0001,1.0001 0 0 0 1,-1 v -3 a 1.0001,1.0001 0 0 0 -1,-1 h -0.99805 a 1,1 0 0 0 -1,1 1,1 0 0 0 0.99805,1 v 1 h -4 v -1 h 0.99414 a 1,1 0 0 0 1,-1 1,1 0 0 0 -1,-1 z" id="rect1395" style="color:#000000;fill:#000000;fill-rule:evenodd;stroke-linecap:round;stroke-linejoin:round;stroke-miterlimit:4.1"/>
<path d="m 118.99389,603 h 15.99384 v 10 h -15.99384 z" id="rect1389-9" style="fill:#ffa221;fill-opacity:1;fill-rule:evenodd;stroke:none;stroke-width:2;stroke-linecap:round;stroke-linejoin:round;stroke-miterlimit:4.1"/>
<path d="M 118.99359,603.02148 V 613 h 12.54297 a 14,8 0 0 0 0.45117,-2 14,8 0 0 0 -12.99414,-7.97852 z" id="path72307" style="fill:#ffc343;fill-opacity:1;fill-rule:evenodd;stroke:none;stroke-width:2;stroke-linecap:round;stroke-linejoin:round;stroke-miterlimit:4.1;stroke-opacity:1"/>
<path d="m 118.99359,602 a 1.0001,1.0001 0 0 0 -1,1 v 10 a 1.0001,1.0001 0 0 0 1,1 h 7 a 1,1 0 0 0 1,-1 1,1 0 0 0 -1,-1 h -6 v -8 h 13.99414 v 8 h -3.00586 a 1,1 0 0 0 -1,1 1,1 0 0 0 1,1 h 4.00586 a 1.0001,1.0001 0 0 0 1,-1 v -10 a 1.0001,1.0001 0 0 0 -1,-1 z" id="path67280" style="color:#000000;fill:#000000;fill-rule:evenodd;stroke-linecap:round;stroke-linejoin:round;stroke-miterlimit:4.1"/>
<path d="m 134.98772,607.00001 -7.99999,2 -7.99385,-2 10e-6,-4.00001 h 15.99384 v 4" id="path1391-3" style="fill:#fe73c5;fill-opacity:1;fill-rule:evenodd;stroke:none;stroke-width:2;stroke-linecap:round;stroke-linejoin:round;stroke-miterlimit:4.1"/>
<path d="m 118.99359,603 v 4 l 7.99414,2 4.82422,-1.20508 A 14,8 0 0 0 118.99359,603 Z" id="ellipse72405" style="fill:#fe93d3;fill-opacity:1;fill-rule:evenodd;stroke:none;stroke-width:2;stroke-linecap:round;stroke-linejoin:round;stroke-miterlimit:4.1;stroke-opacity:1"/>
<path d="m 118.99359,602 a 1.0001,1.0001 0 0 0 -1,1 v 4 a 1.0001,1.0001 0 0 0 0.75781,0.9707 l 7.99414,2 a 1.0001,1.0001 0 0 0 0.48438,0 l 8,-2 a 1,1 0 0 0 0.42578,-0.24804 1,1 0 0 0 0.0606,-0.0664 1,1 0 0 0 0.25585,-0.61719 1,1 0 0 0 0.0156,-0.0391 v -4 a 1.0001,1.0001 0 0 0 -1,-1 h -7.99609 z m 1,2 h 6.99805 6.99609 v 2.21875 l -7,1.75 -6.99414,-1.75 z" id="path67282" style="color:#000000;fill:#000000;fill-rule:evenodd;stroke-linecap:round;stroke-linejoin:round;stroke-miterlimit:4.1"/>
<path d="m 126.98773,605.95312 a 1,1 0 0 0 -1,1 V 610 a 1,1 0 0 0 1,1 1,1 0 0 0 1,-1 v -3.04688 a 1,1 0 0 0 -1,-1 z" id="path1393" style="color:#000000;fill:#000000;fill-rule:evenodd;stroke-linecap:round;stroke-linejoin:round;stroke-miterlimit:4.1"/>
</g>
</svg>