<!DOCTYPE svg PUBLIC "-//W3C//DTD SVG 1.1//EN" "http://www.w3.org/Graphics/SVG/1.1/DTD/svg11.dtd">
<!-- Uploaded to: SVG Repo, www.svgrepo.com, Transformed by: SVG Repo Mixer Tools -->
<svg width="800px" height="800px" viewBox="0 0 64.000015 64.000015" id="svg5" version="1.1" xml:space="preserve" xmlns="http://www.w3.org/2000/svg" xmlns:svg="http://www.w3.org/2000/svg" fill="#000000">
<g id="SVGRepo_bgCarrier" stroke-width="0"/>
<g id="SVGRepo_tracerCarrier" stroke-linecap="round" stroke-linejoin="round"/>
<g id="SVGRepo_iconCarrier"> <defs id="defs2"/> <g id="layer1" transform="translate(-96)"> <path d="m 106.00001,9 h 49 v 6 h -49 z" id="path6142" style="fill:#3e4f59;fill-opacity:1;fill-rule:evenodd;stroke-width:2;stroke-linecap:round;stroke-linejoin:round;stroke-miterlimit:4.1"/> <path d="m 106.00001,15 h 49 v 40 h -49 z" id="path6144" style="fill:#acbec2;fill-opacity:1;fill-rule:evenodd;stroke-width:2.00001;stroke-linecap:round;stroke-linejoin:round;stroke-miterlimit:4.1"/> <path d="m 106.00001,15 v 40 h 29.76953 a 28.484051,41.392605 35.599482 0 0 18.625,-40 z" id="path6146" style="fill:#e8edee;fill-opacity:1;fill-rule:evenodd;stroke:none;stroke-width:2.00002;stroke-linecap:round;stroke-linejoin:round;stroke-miterlimit:4.1"/> <path d="m 144.00001,34.82472 c 0,7.179705 -5.8203,13.000005 -13,13.000005 -7.17971,0 -13.00001,-5.8203 -13.00001,-13.000005 0,-7.179705 5.8203,-13.000005 13.00001,-13.000005 7.1797,0 13,5.8203 13,13.000005 z" id="path31153" style="fill:#ffa221;fill-opacity:1;fill-rule:evenodd;stroke:none;stroke-width:1.99999;stroke-linecap:round;stroke-linejoin:round;stroke-miterlimit:4.1"/> <path d="m 108.00001,8 c -1.64501,0 -3,1.3549933 -3,3 v 40 c 0,0.552285 0.44772,1 1,1 0.55228,0 1,-0.447715 1,-1 V 11 c 0,-0.564128 0.43587,-1 1,-1 h 45 c 0.56413,0 1,0.435872 1,1 v 3 h -42 c -0.55228,0 -1,0.447715 -1,1 0,0.552285 0.44772,1 1,1 h 42 v 37 c 0,0.564127 -0.43587,1 -1,1 h -49 c -0.55228,0 -1,0.447715 -1,1 0,0.552285 0.44772,1 1,1 h 49 c 1.64501,0 3,-1.354994 3,-3 0,-14 0,-28 0,-42 0,-1.6450067 -1.35499,-3 -3,-3 z" id="path6148" style="color:#000000;fill:#000000;fill-rule:evenodd;stroke-linecap:round;stroke-linejoin:round;stroke-miterlimit:4.1"/> <path d="m 151.00001,11 c -0.55228,0 -1,0.447715 -1,1 0,0.552285 0.44772,1 1,1 0.55228,0 1,-0.447715 1,-1 0,-0.552285 -0.44772,-1 -1,-1 z" id="path6150" style="color:#000000;fill:#ed7161;fill-opacity:1;fill-rule:evenodd;stroke-linecap:round;stroke-linejoin:round;stroke-miterlimit:4.1;-inkscape-stroke:none"/> <path d="m 147.00001,11 c -0.55228,0 -1,0.447715 -1,1 0,0.552285 0.44772,1 1,1 0.55228,0 1,-0.447715 1,-1 0,-0.552285 -0.44772,-1 -1,-1 z" id="path6152" style="color:#000000;fill:#ecba16;fill-opacity:1;fill-rule:evenodd;stroke-linecap:round;stroke-linejoin:round;stroke-miterlimit:4.1;-inkscape-stroke:none"/> <path d="m 143.00001,11 c -0.55228,0 -1,0.447715 -1,1 0,0.552285 0.44772,1 1,1 0.55228,0 1,-0.447715 1,-1 0,-0.552285 -0.44772,-1 -1,-1 z" id="path6154" style="color:#000000;fill:#42b05c;fill-opacity:1;fill-rule:evenodd;stroke-linecap:round;stroke-linejoin:round;stroke-miterlimit:4.1;-inkscape-stroke:none"/> <path d="m 101.00001,54 a 1,1 0 0 0 -1,1 1,1 0 0 0 1,1 1,1 0 0 0 1,-1 1,1 0 0 0 -1,-1 z" id="path6156" style="color:#000000;fill:#000000;fill-rule:evenodd;stroke-linecap:round;stroke-linejoin:round;stroke-miterlimit:4.1;-inkscape-stroke:none"/> <path d="m 109.00001,14 c -0.55228,0 -1,0.447715 -1,1 0,0.552285 0.44772,1 1,1 0.55228,0 1,-0.447715 1,-1 0,-0.552285 -0.44772,-1 -1,-1 z" id="path6158" style="color:#000000;fill:#000000;fill-rule:evenodd;stroke-linecap:round;stroke-linejoin:round;stroke-miterlimit:4.1;-inkscape-stroke:none"/> <path d="m 131,21.824219 c -7.1797,0 -13,5.820302 -13,13 0,6.336409 4.53488,11.611332 10.53516,12.763672 6.57904,-2.346499 11.28906,-8.628733 11.28906,-16.013672 0,-2.781095 -0.67145,-5.403178 -1.85547,-7.720703 C 135.95404,22.570963 133.56526,21.824219 131,21.824219 Z" id="path6388" style="fill:#ffc343;fill-opacity:1;fill-rule:evenodd;stroke:none;stroke-width:1.99998;stroke-linecap:round;stroke-linejoin:round;stroke-miterlimit:4.1"/> <path d="m 133.00002,41.824718 a 2,2 0 0 1 -2,2 2,2 0 0 1 -2,-2 2,2 0 0 1 2,-2 2,2 0 0 1 2,2 z" id="path2060" style="color:#000000;fill:#fe93d3;fill-opacity:1;fill-rule:evenodd;stroke-width:2;stroke-linecap:round;stroke-linejoin:round;stroke-miterlimit:4.1;-inkscape-stroke:none"/> <path d="m 131,38.824219 c -1.64501,0 -3,1.354992 -3,3 0,1.645008 1.35499,3 3,3 1.64501,0 3,-1.354992 3,-3 0,-1.645008 -1.35499,-3 -3,-3 z m 0,2 c 0.56413,0 1,0.435871 1,1 0,0.564129 -0.43587,1 -1,1 -0.56413,0 -1,-0.435871 -1,-1 0,-0.564129 0.43587,-1 1,-1 z" id="path2062" style="color:#000000;fill:#000000;fill-rule:evenodd;stroke-linecap:round;stroke-linejoin:round;stroke-miterlimit:4.1;-inkscape-stroke:none"/> <path d="m 133.00001,31.57472 a 2,5.25 0 0 1 -2,5.25 2,5.25 0 0 1 -2,-5.25 2,5.25 0 0 1 2,-5.25 2,5.25 0 0 1 2,5.25 z" id="path31159" style="fill:#fe93d3;fill-opacity:1;fill-rule:evenodd;stroke:none;stroke-width:2;stroke-linecap:round;stroke-linejoin:round;stroke-miterlimit:4.1"/> <path d="m 131,20.824219 c -7.72014,0 -14,6.279865 -14,14 a 0.99999499,0.99999499 0 0 0 1,1 0.99999499,0.99999499 0 0 0 1,-1 c 0,-6.639261 5.36073,-12 12,-12 3.34545,0 6.35858,1.363847 8.53516,3.566406 a 0.99999499,0.99999499 0 0 0 1.41406,0.0078 0.99999499,0.99999499 0 0 0 0.01,-1.414062 C 138.4221,22.417204 134.89009,20.824219 131,20.824219 Z m 11.10156,7.158203 a 0.99999499,0.99999499 0 0 0 -0.42969,1.347656 C 142.52128,30.9761 143,32.840232 143,34.824219 c 0,6.639261 -5.36074,12 -12,12 -5.24255,0 -9.68619,-3.352102 -11.32617,-8.021485 a 0.99999499,0.99999499 0 0 0 -1.27344,-0.611328 0.99999499,0.99999499 0 0 0 -0.61328,1.273438 c 1.9156,5.454135 7.11685,9.359375 13.21289,9.359375 7.72013,0 14,-6.279866 14,-14 0,-2.306983 -0.55931,-4.490799 -1.55078,-6.41211 a 0.99999499,0.99999499 0 0 0 -1.34766,-0.429687 z" id="path1926" style="color:#000000;fill:#000000;fill-opacity:1;fill-rule:evenodd;stroke-linecap:round;stroke-linejoin:round;stroke-miterlimit:4.1;-inkscape-stroke:none"/> <path d="m 131,25.324219 c -0.63081,0 -1.16097,0.343864 -1.52148,0.74414 -0.36052,0.400277 -0.61705,0.883405 -0.82813,1.4375 C 128.22822,28.61405 128,30.021532 128,31.574219 c 0,1.552687 0.22822,2.960169 0.65039,4.068359 0.21108,0.554095 0.46761,1.039177 0.82813,1.439453 0.36051,0.400277 0.89067,0.742188 1.52148,0.742188 0.63081,0 1.16097,-0.341911 1.52148,-0.742188 0.36052,-0.400276 0.61705,-0.885358 0.82813,-1.439453 C 133.77178,34.534388 134,33.126906 134,31.574219 a 1,1 0 0 0 -1,-1 1,1 0 0 0 -1,1 c 0,1.346805 -0.21784,2.565488 -0.51953,3.357422 -0.15085,0.395967 -0.32728,0.679495 -0.44531,0.810546 -0.11804,0.131052 -0.11368,0.08203 -0.0352,0.08203 0.0785,0 0.0829,0.04902 -0.0352,-0.08203 -0.11803,-0.131051 -0.29446,-0.414579 -0.44531,-0.810546 C 130.21784,34.139707 130,32.921024 130,31.574219 c 0,-1.346805 0.21784,-2.563535 0.51953,-3.355469 0.15085,-0.395967 0.32728,-0.681448 0.44531,-0.8125 0.11804,-0.131052 0.11368,-0.08203 0.0352,-0.08203 -0.0876,0 -0.0689,-0.05135 0.0781,0.132812 0.14705,0.184159 0.34394,0.555839 0.50196,1.050781 a 1,1 0 0 0 1.25781,0.648438 1,1 0 0 0 0.64844,-1.255859 C 133.27748,27.24618 133.01666,26.677468 132.6426,26.208985 132.26851,25.740502 131.70342,25.324219 131,25.324219 Z" id="path2066" style="color:#000000;fill:#000000;fill-rule:evenodd;stroke-linecap:round;stroke-linejoin:round;stroke-miterlimit:4.1;-inkscape-stroke:none"/> </g> </g>
</svg>